<svg xmlns="http://www.w3.org/2000/svg" viewBox="0 0 128 128" width="128" height="128">
  <defs>
    <linearGradient id="fireGrad" x1="50%" y1="100%" x2="50%" y2="0%">
      <stop offset="0%" style="stop-color:#83381d"/>
      <stop offset="40%" style="stop-color:#d97228"/>
      <stop offset="70%" style="stop-color:#e28d4f"/>
      <stop offset="100%" style="stop-color:#f5a623"/>
    </linearGradient>
  </defs>
  <path d="M64 8 C64 8 32 40 32 72 C32 96 46 116 64 120 C82 116 96 96 96 72 C96 52 80 36 80 36 C80 36 84 56 72 68 C72 68 76 44 64 8Z" fill="url(#fireGrad)"/>
  <path d="M64 56 C64 56 50 72 50 88 C50 100 56 112 64 116 C72 112 78 100 78 88 C78 72 64 56 64 56Z" fill="#f5a623" opacity="0.6"/>
</svg>
